<svg xmlns="http://www.w3.org/2000/svg" viewBox="0 0 512 512"><!--!Font Awesome Free 6.5.2 by @fontawesome - https://fontawesome.com License - https://fontawesome.com/license/free Copyright 2024 Fonticons, Inc.--><path fill="#1e3050" d="M160 288h-16c-35.4 0-64 28.7-64 64.1v63.8c0 35.4 28.7 64.1 64 64.1h16c17.7 0 32-14.4 32-32.1V320.1c0-17.7-14.3-32.1-32-32.1zm208 0h-16c-17.7 0-32 14.4-32 32.1v127.9c0 17.7 14.3 32.1 32 32.1h16c35.4 0 64-28.7 64-64.1v-63.8c0-35.4-28.7-64.1-64-64.1zM256 32C112.9 32 4.6 151.1 0 288v112c0 8.8 7.2 16 16 16h16c8.8 0 16-7.2 16-16V288c0-114.7 93.3-207.8 208-207.8 114.7 0 208 93.2 208 207.8v112c0 8.8 7.2 16 16 16h16c8.8 0 16-7.2 16-16V288C507.4 151.1 399.1 32 256 32z"/></svg>