<?xml version="1.0" standalone="no"?>
<!DOCTYPE svg PUBLIC "-//W3C//DTD SVG 20010904//EN"
 "http://www.w3.org/TR/2001/REC-SVG-20010904/DTD/svg10.dtd">
<svg version="1.0" xmlns="http://www.w3.org/2000/svg"
 width="348.000000pt" height="320.000000pt" viewBox="0 0 348.000000 320.000000"
 preserveAspectRatio="xMidYMid meet">

<g transform="translate(0.000000,320.000000) scale(0.100000,-0.100000)"
fill="#000000" stroke="none">
<path d="M630 2025 l0 -1095 1100 0 1100 0 0 551 c0 521 -1 551 -17 544 -57
-25 -131 -38 -177 -31 -91 14 -173 119 -206 266 -6 30 -14 63 -16 72 -4 14
-15 9 -64 -30 -168 -135 -311 -181 -416 -133 -178 81 -219 290 -99 508 19 35
35 65 35 66 0 1 -35 3 -78 5 -110 3 -176 26 -233 82 -71 68 -75 135 -15 273 8
16 -18 17 -453 17 l-461 0 0 -1095z m786 979 c-3 -9 -6 -27 -6 -40 l0 -24
-295 0 -295 0 0 -305 0 -305 305 0 305 0 0 246 0 246 33 -44 c18 -24 56 -56
85 -71 51 -28 52 -29 52 -73 l0 -44 45 0 c49 0 52 -6 34 -59 -9 -27 -16 -31
-45 -31 -33 0 -34 -1 -34 -40 0 -37 2 -40 29 -40 31 0 41 -14 41 -61 0 -27 -3
-29 -35 -29 -35 0 -35 0 -35 46 l0 45 -42 -3 -43 -3 0 -85 0 -85 88 -3 c78 -2
87 -1 87 15 0 15 2 16 10 3 6 -10 6 -16 0 -18 -17 -6 -12 -82 5 -83 8 -1 20
-3 25 -4 6 -1 17 -3 25 -4 11 -1 15 -13 15 -41 l0 -40 45 0 44 0 3 -87 3 -88
128 -3 127 -3 0 -39 0 -40 129 0 130 0 3 41 3 41 83 1 82 2 0 -42 0 -43 45 0
45 0 0 45 0 45 45 0 45 0 0 -435 0 -435 -1000 0 -1000 0 0 995 0 995 346 0
c312 0 346 -2 340 -16z m-76 -369 l0 -215 -215 0 -215 0 0 215 0 215 215 0
215 0 0 -215z m1030 -472 c0 -30 51 -146 69 -157 22 -14 10 -26 -24 -26 -34 0
-35 -1 -35 -40 l0 -40 -130 0 -130 0 0 75 0 74 43 13 c23 6 44 15 47 18 3 3
28 20 56 38 28 18 59 41 69 52 25 27 35 25 35 -7z m240 -259 c0 -2 -11 -4 -25
-4 -14 0 -25 4 -25 9 0 4 11 6 25 3 14 -2 25 -6 25 -8z"/>
<path d="M1512 2548 c3 -43 3 -43 46 -46 l42 -3 0 45 0 46 -46 0 -45 0 3 -42z"/>
<path d="M820 2200 c0 -25 5 -40 13 -41 6 0 44 -1 82 -1 l70 0 3 41 3 41 -85
0 -86 0 0 -40z"/>
<path d="M1250 2200 l0 -40 -130 0 -130 0 0 -90 0 -90 -40 0 -40 0 0 45 0 45
-45 0 -45 0 0 -130 0 -130 45 0 45 0 0 40 0 39 83 3 82 3 3 43 3 42 45 0 44 0
0 45 0 45 85 0 85 0 0 -45 0 -45 -45 0 -45 0 0 -40 0 -40 -40 0 -40 0 0 -45 0
-45 40 0 c40 0 40 0 40 39 0 38 1 39 41 43 22 2 42 2 45 -1 2 -2 4 -22 4 -43
l0 -38 85 0 85 0 2 -217 3 -218 43 -3 42 -3 0 90 0 91 45 0 45 0 0 -45 0 -45
40 0 40 0 0 -45 0 -45 -40 0 -40 0 0 -40 0 -40 -45 0 -45 0 0 -45 0 -45 -46 0
-45 0 3 -42 3 -43 127 -3 127 -3 3 88 3 88 43 3 42 3 0 -91 0 -91 43 3 42 3 0
85 0 85 -42 3 c-43 3 -43 3 -43 42 0 39 0 39 43 42 l42 3 3 173 2 172 -45 0
-45 0 0 -85 0 -85 -85 0 -85 0 0 40 0 40 40 0 40 0 0 45 0 45 -40 0 -40 0 0
45 0 45 -45 0 -45 0 0 39 c0 40 0 40 43 43 42 3 42 3 45 46 3 42 3 42 43 42
l39 0 0 45 0 45 -40 0 -40 0 0 -45 0 -45 -45 0 -45 0 0 45 0 45 -45 0 -45 0 0
45 0 45 -40 0 -40 0 0 40 0 40 -90 0 -90 0 0 -40z m164 -46 c11 -4 16 -19 16
-45 l0 -39 -45 0 -45 0 0 39 c0 33 4 40 23 44 12 2 25 5 29 6 3 0 13 -2 22 -5z
m186 -214 l0 -40 -130 0 -130 0 0 40 0 40 130 0 130 0 0 -40z m90 -265 l0 -45
-45 0 -45 0 0 45 0 45 45 0 45 0 0 -45z"/>
<path d="M820 1415 l0 -305 303 2 302 3 3 303 2 302 -305 0 -305 0 0 -305z
m520 0 l0 -215 -215 0 -215 0 0 215 0 215 215 0 215 0 0 -215z"/>
<path d="M990 1420 l0 -130 130 0 130 0 0 130 0 130 -130 0 -130 0 0 -130z"/>
<path d="M2032 1418 l3 -303 303 -3 302 -2 0 305 0 305 -305 0 -305 0 2 -302z
m518 -3 l0 -215 -215 0 -215 0 0 215 0 215 215 0 215 0 0 -215z"/>
<path d="M2210 1420 l0 -130 130 0 130 0 0 130 0 130 -130 0 -130 0 0 -130z"/>
<path d="M990 2630 l0 -130 130 0 130 0 0 130 0 130 -130 0 -130 0 0 -130z"/>
<path d="M2210 2025 l0 -45 40 0 40 0 0 45 0 45 -40 0 -40 0 0 -45z"/>
<path d="M507 466 c-50 -18 -76 -42 -98 -91 -44 -95 -1 -195 101 -235 19 -8
56 -29 83 -47 55 -37 117 -44 155 -17 26 18 26 22 7 48 -12 16 -18 17 -27 8
-14 -14 -57 -16 -78 -2 -12 7 -10 11 11 18 75 29 116 134 85 216 -21 53 -49
81 -105 101 -53 18 -84 18 -134 1z m132 -82 c52 -44 51 -132 -3 -169 -24 -17
-89 -20 -117 -5 -25 14 -49 62 -49 97 1 88 101 134 169 77z"/>
<path d="M880 300 l0 -170 34 0 c34 0 35 1 38 48 3 46 4 47 38 50 32 2 38 -2
69 -48 32 -47 36 -50 72 -48 22 1 39 4 39 6 0 2 -16 26 -36 53 l-35 48 31 28
c62 56 43 156 -35 189 -21 9 -69 14 -125 14 l-90 0 0 -170z m197 84 c34 -47 5
-86 -71 -92 l-56 -4 0 54 c0 30 3 58 8 62 14 15 105 0 119 -20z"/>
<path d="M1422 303 l3 -168 35 0 35 0 5 91 5 92 44 -74 c29 -47 51 -74 62 -74
12 0 35 29 66 80 l48 81 3 -101 3 -100 34 0 35 0 0 170 0 170 -32 0 c-31 0
-37 -6 -92 -100 -32 -55 -61 -98 -66 -95 -4 2 -33 47 -64 100 -54 91 -58 95
-92 95 l-34 0 2 -167z"/>
<path d="M1942 303 l3 -168 125 0 125 0 3 33 3 32 -91 0 -91 0 3 38 c2 20 9
38 16 38 6 1 39 2 72 3 60 1 60 1 60 31 l0 30 -75 0 -75 0 0 35 0 35 85 0 85
0 0 30 0 30 -125 0 -125 0 2 -167z"/>
<path d="M2322 303 l3 -168 35 0 35 0 5 98 5 97 83 -100 c72 -88 86 -101 110
-98 l27 3 3 168 2 167 -39 0 -40 0 -3 -97 -3 -96 -78 96 c-72 88 -82 97 -113
97 l-34 0 2 -167z"/>
<path d="M2762 351 c4 -93 9 -126 24 -153 39 -67 148 -90 215 -45 56 37 69 76
69 205 l0 112 -40 0 -40 0 0 -113 c0 -135 -10 -157 -69 -157 -64 0 -75 22 -79
156 l-4 114 -40 0 -41 0 5 -119z"/>
</g>
</svg>
